# xmcd
#
# Track frame offsets: 
#        150
#        12229
#        25624
#        45346
#        68269
#        83037
#        94874
#        108401
#        130609
#        148043
#        168705
#        180058
#        199688
#        216653
#        232958
#
# Disc length: 3288 seconds
#
# Revision: 0
# Processed by: cddbd v1.5.2PL0 Copyright (c) Steve Scherf et al.
# Submitted via: ExactAudioCopy v1.3
#
DISCID=b80cd60f
DTITLE=Wentus Blues Band - Throwback
DYEAR=2018
DGENRE=Blues
TTITLE0=Wrapped Up In Love
TTITLE1=Future Blues
TTITLE2=Rainbow
TTITLE3=Let Me Get Over It
TTITLE4=Frog Leg Man
TTITLE5=Done Somebody Wrong
TTITLE6=Feel So Young
TTITLE7=Hard Working Woman
TTITLE8=Don't Let Nobody Drag Your Spirit Down
TTITLE9=I Think You Need A Shrink
TTITLE10=Thirty Dirty Wome
TTITLE11=Fixin' To Die
TTITLE12=Time Was
TTITLE13=Last Of The Blues Singers
TTITLE14=Red's Dream
EXTD=
EXTT0=
EXTT1=
EXTT2=
EXTT3=
EXTT4=
EXTT5=
EXTT6=
EXTT7=
EXTT8=
EXTT9=
EXTT10=
EXTT11=
EXTT12=
EXTT13=
EXTT14=
PLAYORDER=
